<svg xmlns="http://www.w3.org/2000/svg" width="240" height="520" viewBox="0 0 240 520" fill="none">
  <path fill="#041522" d="M113 520h16l-3-192h-10z"/>
  <path fill="#061e31" d="M120 12c-11 33-16 61-14 85-18 26-27 52-27 78-24 35-37 72-38 112-28 49-36 101-24 156h206c12-55 4-107-24-156-1-40-14-77-38-112 0-26-9-52-27-78 2-24-3-52-14-85z"/>
  <path fill="#082a43" d="M120 36c-8 35-9 64-3 88-18 26-25 53-21 80-24 35-31 72-22 110-27 40-38 82-31 126h154c7-44-4-86-31-126 9-38 2-75-22-110 4-27-3-54-21-80 6-24 5-53-3-88z"/>
  <path fill="#0d3a56" d="M120 72c-5 28-4 53 4 75-15 22-20 45-16 69-18 27-23 56-14 86-16 31-21 63-14 97h80c7-34 2-66-14-97 9-30 4-59-14-86 4-24-1-47-16-69 8-22 9-47 4-75z"/>
  <path fill="#051a2a" d="M105 156c-24 31-43 67-54 108l43-21-58 119h27l55-114-29 9 32-101zM135 156c24 31 43 67 54 108l-43-21 58 119h-27l-55-114 29 9-32-101z"/>
  <path d="M120 118c-10 47-7 94 8 140M113 183l-31 60M128 213l34 67M116 292l-42 76M126 320l43 72" stroke="#174862" stroke-linecap="round" stroke-width="7"/>
  <path d="M119 129c-4 39-3 78 4 117M109 255l-19 48M131 270l21 51" stroke="#27617c" stroke-linecap="round" stroke-width="3" opacity=".72"/>
</svg>
