<svg xmlns="http://www.w3.org/2000/svg" width="220" height="560" viewBox="0 0 220 560" fill="none">
  <path fill="#041522" d="M104 560h14l-2-188h-10z"/>
  <path fill="#061e31" d="M110 10C84 55 72 101 75 148c-21 39-28 80-20 122-23 47-29 95-18 144-18 48-20 94-6 138h158c14-44 12-90-6-138 11-49 5-97-18-144 8-42 1-83-20-122 3-47-9-93-35-138z"/>
  <path fill="#082a43" d="M110 45c-16 37-21 73-14 108-17 37-20 73-10 109-18 41-21 82-9 122-14 39-15 77-3 115h72c12-38 11-76-3-115 12-40 9-81-9-122 10-36 7-72-10-109 7-35 2-71-14-108z"/>
  <path fill="#0d3a56" d="M110 91c-8 30-9 60-2 89-10 31-10 62 1 93-11 34-10 68 2 102-8 31-7 62 2 93h-7c9-31 10-62 2-93 12-34 13-68 2-102 11-31 11-62 1-93 7-29 6-59-2-89z"/>
  <path fill="#051a2a" d="M88 170c-20 41-29 83-27 127-17 42-21 83-11 123h21c-7-39-3-80 12-122-1-43 8-85 25-125zM132 170c20 41 29 83 27 127 17 42 21 83 11 123h-21c7-39 3-80-12-122 1-43-8-85-25-125z"/>
  <path d="M110 123c-5 55-2 110 8 165M103 208l-25 52M119 255l29 57M105 336l-25 54" stroke="#174862" stroke-linecap="round" stroke-width="6"/>
  <path d="M112 145c-2 41 1 81 8 120M96 291l-14 35M124 331l15 34" stroke="#2a6781" stroke-linecap="round" stroke-width="3" opacity=".68"/>
</svg>
