<svg xmlns="http://www.w3.org/2000/svg" width="280" height="500" viewBox="0 0 280 500" fill="none">
  <path fill="#041522" d="m141 500 16-2 34-160-11-3z"/>
  <path fill="#061e31" d="M94 27c-2 37-11 68-28 95-32 29-52 62-60 100-26 31-34 68-24 111-16 43-9 85 20 126h211c-1-46-19-88-54-126 1-42-17-79-54-111-2-39-14-76-35-111-4-32-13-60-26-84z"/>
  <path fill="#082a43" d="M101 61c-6 31-17 58-33 81-26 25-41 53-45 85-21 27-26 57-16 90-10 35-4 69 19 103h157c-5-35-22-68-50-100 1-33-13-63-42-91 0-32-9-63-27-92 1-26 0-51-3-76z"/>
  <path fill="#0d3a56" d="M112 104c-8 26-19 48-33 68-17 21-24 43-20 67-14 23-16 48-7 73-5 25 0 50 15 74h104c-10-24-28-46-53-67 1-24-8-47-27-69 1-24-5-47-18-69 13-18 24-40 32-65z"/>
  <path fill="#051a2a" d="M89 165c-34 26-59 57-75 93l61-18-54 114h29l82-111-42 9 20-87zM137 181c44 27 78 59 102 95l-76-26 77 118h-30l-90-111 41 10-24-86z"/>
  <path d="m117 126 53 192M119 214l-59 51M145 255l71 31M150 330l70 45" stroke="#174862" stroke-linecap="round" stroke-width="8"/>
  <path d="m122 144 39 125M103 279l-39 34M153 305l43 27" stroke="#2a6781" stroke-linecap="round" stroke-width="3" opacity=".7"/>
</svg>
