<svg xmlns="http://www.w3.org/2000/svg" width="310" height="460" viewBox="0 0 310 460" fill="none">
  <path fill="#041522" d="M149 460h15l-3-184h-10z"/>
  <path fill="#061e31" d="M155 20c-32 0-56 18-67 45-37-4-70 21-78 57-8 27 1 55 21 71-23 16-34 42-29 70 5 27 22 48 45 57-10 23-7 50 9 70h198c16-20 19-47 9-70 23-9 40-30 45-57 5-28-6-54-29-70 20-16 29-44 21-71-8-36-41-61-78-57-11-27-35-45-67-45z"/>
  <path fill="#082a43" d="M155 54c-25 0-43 16-50 38-31-5-57 16-63 45-5 23 5 44 25 56-20 15-27 38-19 61 8 22 25 36 47 41-9 19-7 40 5 59h110c12-19 14-40 5-59 22-5 39-19 47-41 8-23 1-46-19-61 20-12 30-33 25-56-6-29-32-50-63-45-7-22-25-38-50-38z"/>
  <path fill="#0d3a56" d="M155 96c-18 0-30 13-35 30-21-4-39 11-43 31-3 16 5 31 20 39-15 12-20 30-13 47 6 16 19 26 35 30-5 14-3 29 5 43h62c8-14 10-29 5-43 16-4 29-14 35-30 7-17 2-35-13-47 15-8 23-23 20-39-4-20-22-35-43-31-5-17-17-30-35-30z"/>
  <path fill="#051a2a" d="M88 183c-31 16-47 42-47 75 0 28 14 51 38 63-15 17-19 37-12 59h28c-10-20-8-40 7-60-23-13-35-34-35-61 0-29 14-52 42-69zM222 183c31 16 47 42 47 75 0 28-14 51-38 63 15 17 19 37 12 59h-28c10-20 8-40-7-60 23-13 35-34 35-61 0-29-14-52-42-69z"/>
  <path d="M155 122c2 54 0 108-6 161M149 195l-49 54M158 218l53 51M150 289l-42 47" stroke="#174862" stroke-linecap="round" stroke-width="8"/>
  <path d="M155 139c1 40-2 80-8 119M128 270l-29 30M180 279l29 28" stroke="#2a6781" stroke-linecap="round" stroke-width="3" opacity=".72"/>
</svg>
