<svg xmlns="http://www.w3.org/2000/svg" width="300" height="480" viewBox="0 0 300 480" fill="none">
  <path fill="#041522" d="M144 480h17l-3-155h-11z"/>
  <path fill="#061e31" d="M150 22c-18 35-25 66-22 93-33 25-53 55-59 89-41 29-63 66-67 110-5 49 12 96 49 141h198c37-45 54-92 49-141-4-44-26-81-67-110-6-34-26-64-59-89 3-27-4-58-22-93z"/>
  <path fill="#082a43" d="M150 54c-12 32-14 60-5 84-28 23-43 49-46 79-36 27-54 59-53 96-1 39 15 75 46 108h116c31-33 47-69 46-108 1-37-17-69-53-96-3-30-18-56-46-79 9-24 7-52-5-84z"/>
  <path fill="#0d3a56" d="M150 102c-7 25-5 47 6 67-23 19-34 40-33 65-27 22-39 47-37 75 2 25 12 48 30 69h68c18-21 28-44 30-69 2-28-10-53-37-75 1-25-10-46-33-65 11-20 13-42 6-67z"/>
  <path fill="#051a2a" d="M126 155c-46 36-80 76-101 120l80-27L19 391h34l98-137-46 12 28-111zM174 155c46 36 80 76 101 120l-80-27 86 143h-34l-98-137 46 12-28-111z"/>
  <path d="M150 121c-3 54-1 111 7 169M143 206l-60 48M157 230l67 54M145 305l-74 46M156 319l71 43" stroke="#174862" stroke-linecap="round" stroke-width="8"/>
  <path d="M150 137c-1 43 2 83 8 120M127 276l-36 36M174 281l38 34" stroke="#2a6781" stroke-linecap="round" stroke-width="3" opacity=".72"/>
</svg>
